<?xml version="1.0" standalone="no"?>
<!DOCTYPE svg PUBLIC "-//W3C//DTD SVG 20010904//EN"
 "http://www.w3.org/TR/2001/REC-SVG-20010904/DTD/svg10.dtd">
<svg version="1.0" xmlns="http://www.w3.org/2000/svg"
 width="301.000000pt" height="167.000000pt" viewBox="0 0 301.000000 167.000000"
 preserveAspectRatio="xMidYMid meet">
<metadata>
Created by potrace 1.16, written by Peter Selinger 2001-2019
</metadata>
<g transform="translate(0.000000,167.000000) scale(0.100000,-0.100000)"
fill="#000000" stroke="none">
<path d="M0 835 l0 -835 1505 0 1505 0 0 835 0 835 -1505 0 -1505 0 0 -835z
m1498 598 l-558 -3 -2 -483 c-2 -434 -2 -457 -8 -232 -11 391 -11 671 0 699
l10 26 557 -2 558 -3 -557 -2z m270 -191 c13 -20 17 -48 16 -122 l-1 -96 49
-18 c67 -24 138 -92 138 -134 0 -45 -47 -93 -124 -128 l-65 -29 6 -66 c7 -85
-1 -130 -32 -163 -42 -45 -116 -32 -205 36 l-44 35 -46 -35 c-75 -58 -144 -77
-190 -52 -34 18 -53 92 -46 173 l6 72 -57 24 c-78 34 -133 88 -133 131 0 44
67 110 138 135 l51 19 -6 76 c-10 133 24 187 113 177 30 -3 64 -18 102 -43 31
-22 60 -40 64 -42 4 -2 25 11 47 29 22 17 64 40 92 49 61 21 100 12 127 -28z"/>
<path d="M1274 1203 c-12 -27 -14 -53 -9 -100 l7 -63 41 7 c70 11 82 16 121
61 45 49 42 57 -39 103 -71 41 -102 39 -121 -8z"/>
<path d="M1615 1211 c-81 -46 -83 -53 -40 -104 32 -38 46 -46 93 -56 30 -6 59
-11 62 -11 15 0 21 116 8 156 -17 52 -53 56 -123 15z"/>
<path d="M1395 980 c-14 -22 -33 -56 -42 -75 -16 -33 -16 -37 0 -70 9 -19 28
-53 42 -75 l25 -40 85 0 85 0 29 45 c16 25 34 59 41 75 14 34 7 60 -41 135
l-29 45 -85 0 -85 0 -25 -40z m165 -50 c29 -29 34 -63 15 -99 -32 -64 -118
-62 -149 4 -18 36 -11 68 19 98 23 24 90 22 115 -3z"/>
<path d="M1175 958 c-52 -26 -95 -67 -95 -89 0 -24 60 -73 114 -94 26 -10 48
-16 49 -14 1 2 12 27 24 56 l21 52 -22 55 c-23 62 -32 65 -91 34z"/>
<path d="M1743 925 l-21 -55 21 -53 c12 -28 23 -54 24 -56 6 -9 98 34 129 61
41 36 43 56 7 90 -30 28 -104 68 -125 68 -7 0 -23 -25 -35 -55z"/>
<path d="M1265 646 c-10 -78 10 -140 47 -144 30 -4 114 36 142 66 18 21 18 22
-19 66 -21 26 -48 47 -63 50 -15 3 -43 8 -64 12 l-36 6 -7 -56z"/>
<path d="M1695 695 c-5 -2 -26 -6 -45 -9 -26 -5 -46 -18 -74 -52 -44 -52 -42
-59 39 -105 53 -31 96 -37 113 -16 17 21 24 77 17 133 -6 53 -14 61 -50 49z"/>
</g>
</svg>
