<?xml version="1.0" standalone="no"?>
<!DOCTYPE svg PUBLIC "-//W3C//DTD SVG 20010904//EN"
 "http://www.w3.org/TR/2001/REC-SVG-20010904/DTD/svg10.dtd">
<svg version="1.0" xmlns="http://www.w3.org/2000/svg"
 width="1342.000000pt" height="285.000000pt" viewBox="0 0 1342.000000 285.000000"
 preserveAspectRatio="xMidYMid meet">
<metadata>
Created by potrace 1.16, written by Peter Selinger 2001-2019
</metadata>
<g transform="translate(0.000000,285.000000) scale(0.100000,-0.100000)"
fill="#000000" stroke="none">
<path d="M0 1425 l0 -1425 6710 0 6710 0 0 1425 0 1425 -6710 0 -6710 0 0
-1425z m4839 160 c82 -29 120 -69 134 -142 l7 -33 -69 0 c-68 0 -69 1 -80 30
-28 83 -211 74 -211 -10 0 -31 37 -51 151 -81 119 -32 166 -54 199 -96 43 -54
34 -150 -18 -206 -46 -49 -99 -70 -190 -75 -168 -9 -274 54 -298 177 l-6 31
71 0 c61 0 71 -2 71 -17 0 -45 74 -93 141 -93 43 0 107 29 115 52 18 57 -19
85 -152 118 -111 27 -146 43 -182 84 -82 94 -29 225 108 267 43 13 166 10 209
-6z m831 -300 l0 -305 -65 0 -65 0 0 305 0 305 65 0 65 0 0 -305z m-276 125
c60 -31 64 -47 68 -247 l3 -183 -58 0 c-50 0 -60 3 -64 19 -5 19 -6 19 -38 -1
-19 -10 -58 -22 -87 -25 -116 -12 -188 37 -188 126 0 87 49 124 186 141 94 12
114 22 114 60 0 36 -23 50 -79 50 -40 0 -81 -26 -81 -50 0 -6 -28 -10 -65 -10
-36 0 -65 2 -65 5 0 3 6 20 14 38 30 72 92 98 221 94 55 -1 101 -8 119 -17z
m700 0 c60 -31 65 -47 68 -248 l3 -182 -58 0 c-50 0 -60 3 -64 19 -5 19 -6 19
-39 -1 -53 -31 -150 -36 -201 -9 -55 27 -73 55 -73 112 0 84 50 122 186 139
94 12 114 22 114 60 0 36 -23 50 -79 50 -40 0 -81 -26 -81 -50 0 -6 -29 -10
-66 -10 -63 0 -65 1 -59 23 12 40 40 72 86 95 39 20 56 23 139 20 58 -2 106
-9 124 -18z m516 -15 l30 -29 22 21 c38 34 64 43 125 43 65 0 110 -21 140 -67
15 -23 19 -54 21 -205 l4 -178 -66 0 -66 0 0 148 c0 161 -8 190 -52 206 -35
12 -82 -7 -97 -40 -6 -15 -11 -83 -11 -169 l0 -145 -65 0 -65 0 0 155 c0 152
-1 156 -25 180 -33 33 -70 32 -106 -4 l-29 -29 0 -151 0 -151 -65 0 -65 0 0
220 0 220 60 0 c58 0 60 -1 60 -27 0 -24 1 -25 18 -10 40 36 76 48 139 45 53
-3 67 -8 93 -33z m764 15 c60 -31 65 -47 68 -248 l3 -182 -58 0 c-51 0 -60 3
-64 20 -5 20 -6 20 -39 -1 -43 -26 -138 -36 -187 -20 -54 18 -87 63 -87 118 0
90 46 126 183 143 93 11 117 23 117 55 0 36 -26 55 -76 55 -43 0 -84 -24 -84
-50 0 -6 -28 -10 -65 -10 l-65 0 6 28 c9 37 41 71 89 94 32 15 58 18 135 16
59 -2 106 -9 124 -18z"/>
<path d="M5253 1175 c-76 -15 -93 -28 -93 -70 0 -24 6 -34 25 -43 50 -23 115
-6 134 34 12 28 15 95 4 93 -5 -1 -36 -7 -70 -14z"/>
<path d="M5954 1176 c-33 -7 -66 -16 -73 -20 -20 -13 -29 -49 -18 -73 21 -47
133 -38 156 13 12 28 15 95 4 93 -5 -1 -35 -7 -69 -13z"/>
<path d="M7230 1174 c-88 -19 -119 -55 -86 -100 11 -14 26 -19 66 -19 44 0 55
4 76 28 17 19 24 40 24 68 0 21 -3 39 -7 38 -5 -1 -37 -7 -73 -15z"/>
</g>
</svg>
